<svg width="21" height="20" viewBox="0 0 21 20" fill="none" xmlns="http://www.w3.org/2000/svg">
<path d="M7.27663 0.666504H4.31767C2.84491 0.666504 1.651 1.86041 1.651 3.33317V5.99984C1.651 13.3636 7.62054 19.3332 14.9843 19.3332H17.651C19.1238 19.3332 20.3177 18.1393 20.3177 16.6665V14.8239C20.3177 14.3189 20.0323 13.8572 19.5806 13.6313L16.3594 12.0207C15.6336 11.6578 14.7548 12.0219 14.4982 12.7916L14.1012 13.9827C13.844 14.7542 13.0526 15.2135 12.2551 15.054C9.06339 14.4156 6.56852 11.9208 5.93018 8.72906C5.77069 7.9316 6.22997 7.14018 7.00148 6.88301L8.47965 6.39029C9.14062 6.16997 9.52052 5.47791 9.35154 4.80199L8.57016 1.67646C8.42177 1.0829 7.88846 0.666504 7.27663 0.666504Z" stroke="black"/>
</svg>
