<svg width="239" height="85" viewBox="0 0 239 85" fill="none" xmlns="http://www.w3.org/2000/svg">
<path d="M217.698 75.8317L177.518 35.9986C177.48 35.9357 177.172 35.7148 176.594 35.3363C176.017 34.895 175.363 34.674 174.632 34.674C173.901 34.674 173.227 35.1154 172.611 35.9986C172.034 36.8819 171.745 38.6479 171.745 41.2971V45.6494C171.745 49.7495 172.322 53.2186 173.477 56.0571C174.632 58.8326 176.113 61.1034 177.922 62.8694C179.77 64.5724 181.752 65.8341 183.868 66.654C185.985 67.4109 188.006 67.7894 189.93 67.7894V71.8578H149.808V67.7894C151.732 67.7894 153.753 67.4109 155.87 66.654C157.986 65.8341 159.949 64.5724 161.758 62.8694C163.605 61.1034 165.106 58.8326 166.261 56.0571C167.415 53.2186 167.993 49.7495 167.993 45.6494V35.7148C167.993 32.4979 167.454 29.5964 166.376 27.0102C165.337 24.361 163.913 22.1218 162.104 20.2925C160.295 18.4002 158.275 16.9494 156.043 15.9402C153.811 14.931 151.501 14.4264 149.115 14.4264V10.3579H192.355L212.444 31.0786C212.444 31.0786 212.675 31.3308 213.137 31.8356C213.599 32.277 214.138 32.8134 214.754 33.444C215.408 34.0117 216.024 34.5165 216.601 34.9579C217.178 35.3993 217.602 35.6202 217.871 35.6202C218.102 35.6202 218.371 35.4626 218.679 35.1471C219.026 34.8316 219.199 34.138 219.199 33.0656C219.199 28.9656 218.775 25.6856 217.929 23.2256C217.121 20.7656 216.062 18.9048 214.754 17.6433C213.445 16.3817 212.021 15.5302 210.482 15.0887C208.942 14.6472 207.46 14.4264 206.036 14.4264V10.3579H236.056V14.4264C234.632 14.4264 233.15 14.6472 231.611 15.0887C230.071 15.5302 228.647 16.3817 227.339 17.6433C226.03 18.9048 224.952 20.7656 224.106 23.2256C223.298 25.6856 222.893 28.9656 222.893 33.0656V75.8317H217.698ZM217.698 68.5463V61.734L169.898 14.4264H168.339V19.6302L217.698 68.5463Z" fill="#FF9F1C"/>
<path d="M34.8686 73.845C31.2894 73.845 28.0181 73.5294 25.0546 72.8988C22.0911 72.3311 19.2624 71.8047 16.4529 70.7322C13.6434 69.5968 3.46377 67.2749 2.88647 62.3769L3.34831 46.6747H6.0616C6.56191 48.5041 7.25466 49.1187 8.60169 51.3265C9.9872 53.5344 11.6998 55.7418 13.7396 57.9496C15.8179 60.0941 18.1271 62.081 20.6671 63.9104C23.2457 65.7397 25.959 67.2219 28.807 68.3573C31.6935 69.4297 34.6183 69.9657 37.5819 69.9657C39.0828 69.9657 40.5645 69.8711 42.0271 69.6819C43.528 69.4297 44.7597 68.9567 45.7217 68.2627C46.7225 67.5687 47.2227 66.5596 47.2227 65.235C47.2227 63.8474 46.607 62.6174 45.3754 61.545C44.1437 60.4725 42.4695 59.4634 40.3529 58.5173C38.2746 57.5711 35.9271 56.625 33.3099 55.6788C30.6927 54.7327 27.9988 53.7236 25.2278 52.6511C22.4568 51.5158 19.7627 50.2541 17.1457 48.8665C14.5286 47.479 12.1617 45.8705 10.0449 44.0412C7.96667 42.2118 6.31177 40.1302 5.08019 37.7965C3.84862 35.3995 3.23285 32.6556 3.23285 29.565C3.23285 25.402 3.81015 21.9958 4.96474 19.3466C6.11932 16.6973 7.65877 14.6474 9.58309 13.1966C11.5459 11.6827 13.7204 10.6104 16.1065 9.97966C18.4927 9.2858 20.9173 8.87583 23.3804 8.74967C25.8821 8.56043 28.2297 8.46582 30.4234 8.46582C32.4246 8.46582 34.6954 8.65505 37.2355 9.03351C39.7756 9.34891 42.3734 9.82199 45.029 10.4527C47.6845 11.0204 50.244 11.6512 52.707 12.345C55.17 13.0389 57.2965 13.5416 59.1727 14.4266L62.9251 16.1346V30.3219H60.2118C59.4613 28.9557 58.5954 27.5465 56.979 25.9696C55.4009 24.3927 53.4959 22.8158 51.2638 21.2389C49.0317 19.5989 46.6454 18.1166 44.1053 16.792C41.6036 15.4673 39.1212 14.395 36.6582 13.575C34.1952 12.7551 31.9437 12.345 29.9039 12.345C27.864 12.345 26.1322 12.692 24.7082 13.3858C23.2842 14.0797 22.5722 15.4358 22.5722 17.4543C22.5722 19.0943 23.1688 20.4504 24.3618 21.5227C25.5549 22.595 27.1522 23.5096 29.1534 24.2666C31.1933 24.9604 33.4638 25.6542 35.9655 26.3481C38.5056 26.9789 41.1034 27.7043 43.7589 28.5243C46.4529 29.2812 49.0507 30.2589 51.5524 31.4573C54.0925 32.6556 56.3633 34.1695 58.3645 35.9989C60.4044 37.7649 62.0208 40.0044 63.2138 42.7165C64.4067 45.3658 65.0034 48.5827 65.0034 52.3673C65.0034 59.9994 62.4056 65.4871 57.2099 68.8304C52.0526 72.1736 44.6055 73.845 34.8686 73.845ZM53.8616 65.4242L54.0925 65.3296V63.1534C54.0925 59.8736 53.4575 57.2556 52.1874 55.3004C50.9174 53.3451 49.1855 51.7996 46.9918 50.6642C44.8365 49.4659 42.3734 48.4252 39.6024 47.5419C36.8698 46.5958 34.0027 45.5233 31.0007 44.325C28.3068 43.2525 25.6511 42.0859 23.0341 40.8242C20.4555 39.4996 18.0886 37.9858 15.9333 36.2827C13.7781 34.5167 11.9885 32.4664 10.5645 30.1327C9.14051 27.7358 8.25532 24.9604 7.90894 21.8066L7.50483 21.712C7.27391 22.5319 7.08147 23.5727 6.92754 24.8343C6.81208 26.0958 6.75435 27.2627 6.75435 28.335C6.75435 32.7502 8.37077 36.5349 11.6036 39.6889C14.875 42.8429 19.9359 45.8705 26.7865 48.7719C31.0585 50.5379 34.6954 51.9888 37.6973 53.1242C40.7377 54.2596 43.2778 55.3321 45.3176 56.3411C47.3959 57.2873 49.1084 58.4544 50.4556 59.8419C51.8027 61.2294 52.9379 63.0905 53.8616 65.4242Z" fill="#FF9F1C"/>
<path d="M106.395 74.034L73.7782 14.4264H69.9104V10.3579H110.552V14.4264H108.935C107.743 14.4264 106.838 15.1202 106.222 16.5079C105.607 17.8956 105.299 19.5356 105.299 21.4279C105.299 22.7525 105.472 24.1402 105.818 25.591C106.164 26.9786 106.665 28.2086 107.319 29.281L118.114 47.2579L125.619 33.8225C126.235 32.75 126.678 31.6463 126.947 30.511C127.216 29.3756 127.351 28.2086 127.351 27.0102C127.351 24.8656 126.928 22.8471 126.081 20.9548C125.235 19.0625 124.041 17.5171 122.502 16.3187C121.001 15.0571 119.231 14.4264 117.191 14.4264H114.304V10.3579H144.208V14.4264H141.264L108.474 74.034H106.395ZM107.377 69.8709L109.917 65.3294L82.0913 14.4264H77.0688L107.377 69.8709Z" fill="#FF9F1C"/>
</svg>
