<svg width="176" height="739" viewBox="0 0 176 739" fill="none" xmlns="http://www.w3.org/2000/svg">
<g opacity="0.3" clip-path="url(#clip0_64_26)">
<path d="M234.455 65.8673L111.3 190.105C111.105 190.224 110.422 191.176 109.252 192.961C107.887 194.746 107.204 196.769 107.204 199.03C107.204 201.291 108.569 203.374 111.3 205.278C114.031 207.063 119.491 207.955 127.681 207.955L141.138 207.955C153.815 207.955 164.54 206.17 173.316 202.6C181.897 199.03 188.918 194.449 194.378 188.855C199.644 183.143 203.545 177.015 206.079 170.47C208.42 163.925 209.59 157.677 209.59 151.727L222.168 151.727L222.168 275.786L209.59 275.786C209.59 269.836 208.42 263.588 206.079 257.043C203.545 250.499 199.644 244.43 194.378 238.836C188.918 233.124 181.897 228.483 173.316 224.913C164.54 221.343 153.815 219.558 141.138 219.558L110.422 219.558C100.476 219.558 91.5053 221.224 83.5095 224.556C75.3186 227.769 68.3955 232.172 62.7399 237.765C56.8893 243.359 52.4038 249.606 49.2835 256.508C46.1633 263.41 44.6031 270.55 44.6031 277.928L32.0243 277.928L32.0243 144.23L96.0882 82.1111C96.0882 82.1111 96.8678 81.397 98.4285 79.969C99.7931 78.541 101.452 76.8747 103.401 74.9709C105.157 72.9476 106.717 71.0439 108.082 69.2589C109.447 67.4738 110.13 66.1646 110.13 65.3318C110.13 64.6178 109.643 63.7851 108.667 62.8328C107.691 61.7618 105.547 61.2262 102.231 61.2262C89.555 61.2262 79.414 62.5356 71.8083 65.1533C64.2025 67.6524 58.4495 70.9252 54.5491 74.9709C50.6486 79.0167 48.0159 83.4203 46.6508 88.1801C45.2857 92.9399 44.6031 97.5221 44.6031 101.925L32.0243 101.925L32.0243 9.10358L44.6031 9.10358C44.6031 13.5063 45.2857 18.0885 46.6508 22.8482C48.0159 27.608 50.6486 32.0117 54.5491 36.0574C58.4495 40.1032 64.2025 43.4358 71.8083 46.0535C79.414 48.5526 89.555 49.8021 102.231 49.8021L234.455 49.8021L234.455 65.8673ZM211.93 65.8673L190.868 65.8673L44.6031 213.667L44.6031 218.487L60.6922 218.487L211.93 65.8673Z" fill="#FF9F1C"/>
<path d="M228.312 631.184C228.312 642.252 227.336 652.366 225.386 661.53C223.631 670.693 222.004 679.44 218.688 688.127C215.177 696.814 207.998 728.29 192.855 730.075L144.307 728.647L144.307 720.257C149.963 718.71 151.863 716.568 158.69 712.403C165.516 708.119 172.341 702.823 179.167 696.516C185.797 690.09 191.94 682.95 197.596 675.096C203.252 667.123 207.835 658.733 211.345 649.927C214.661 641.002 216.318 631.958 216.318 622.795C216.318 618.154 216.025 613.572 215.44 609.05C214.661 604.409 213.198 600.601 211.052 597.626C208.907 594.532 205.787 592.985 201.691 592.985C197.402 592.985 193.599 594.889 190.283 598.697C186.967 602.505 183.847 607.682 180.922 614.227C177.997 620.653 175.071 627.912 172.146 636.004C169.221 644.096 166.101 652.426 162.785 660.994C159.275 669.562 155.374 677.892 151.084 685.985C146.794 694.077 141.821 701.395 136.165 707.94C130.509 714.366 124.073 719.484 116.858 723.292C109.447 727.1 100.963 729.004 91.4079 729.004C78.5366 729.004 68.0055 727.219 59.8147 723.649C51.6239 720.079 45.2858 715.319 40.8003 709.368C36.1198 703.299 32.8044 696.576 30.8543 689.198C28.709 681.82 27.4415 674.322 27.0514 666.706C26.4664 658.971 26.1738 651.712 26.1738 644.929C26.1738 638.741 26.7589 631.72 27.929 623.866C28.9042 616.012 30.3668 607.979 32.3169 599.768C34.0721 591.557 36.0223 583.643 38.1675 576.027C40.3128 568.411 41.867 561.836 44.6032 556.035L49.884 544.432L93.7481 544.432L93.7481 552.822C89.524 555.142 85.1672 557.82 80.2918 562.818C75.4163 567.697 70.5407 573.588 65.6653 580.49C60.5947 587.391 56.0118 594.77 51.9164 602.624C47.821 610.359 44.5056 618.035 41.9704 625.651C39.4352 633.267 38.1675 640.228 38.1675 646.536C38.1675 652.843 39.2401 658.198 41.3854 662.601C43.5306 667.004 47.7234 669.205 53.9641 669.205C59.0347 669.205 63.2275 667.361 66.5429 663.672C69.8583 659.983 72.686 655.044 75.0262 648.856C77.1715 642.549 79.3166 635.528 81.4619 627.793C83.412 619.939 85.6549 611.906 88.1901 603.695C90.5303 595.365 93.5532 587.333 97.2585 579.597C100.963 571.743 105.644 564.722 111.3 558.534C116.76 552.227 123.684 547.228 132.069 543.54C140.26 539.851 150.206 538.006 161.907 538.006C185.504 538.006 202.471 546.039 212.808 562.104C223.144 578.05 228.312 601.077 228.312 631.184ZM202.277 572.457L201.984 571.743L195.256 571.743C185.115 571.743 177.021 573.707 170.976 577.634C164.931 581.561 160.152 586.916 156.642 593.699C152.937 600.363 149.719 607.979 146.988 616.547C144.063 624.997 140.747 633.862 137.042 643.144C133.727 651.474 130.12 659.685 126.219 667.777C122.123 675.75 117.443 683.069 112.177 689.733C106.717 696.397 100.378 701.931 93.1631 706.334C85.7523 710.737 77.1715 713.474 67.4205 714.545L67.1279 715.795C69.6632 716.509 72.881 717.104 76.7814 717.58C80.6819 717.937 84.2896 718.115 87.605 718.115C101.256 718.115 112.957 713.117 122.709 703.121C132.46 693.006 141.821 677.357 150.791 656.175C156.251 642.966 160.737 631.72 164.248 622.438C167.758 613.037 171.074 605.183 174.194 598.875C177.119 592.449 180.727 587.154 185.017 582.989C189.307 578.823 195.061 575.313 202.277 572.457Z" fill="#FF9F1C"/>
<path d="M228.897 410.02L44.6031 510.874L44.6031 522.833L32.0243 522.833L32.0243 397.168L44.6031 397.168L44.6031 402.166C44.6031 405.855 46.7483 408.652 51.0387 410.555C55.3291 412.459 60.3996 413.412 66.2502 413.412C70.3456 413.412 74.636 412.876 79.1215 411.805C83.4119 410.734 87.2148 409.187 90.5302 407.164L146.111 373.784L104.572 350.579C101.256 348.675 97.8434 347.306 94.3331 346.473C90.8227 345.64 87.2148 345.224 83.5095 345.224C76.8788 345.224 70.6382 346.533 64.7876 349.151C58.937 351.768 54.159 355.458 50.4536 360.218C46.5532 364.859 44.6031 370.333 44.6031 376.64L44.6031 385.565L32.0243 385.565L32.0243 293.101L44.6031 293.101L44.6031 302.205L228.897 403.594L228.897 410.02ZM216.025 406.985L201.984 399.131L44.6031 485.169L44.6031 500.699L216.025 406.985Z" fill="#FF9F1C"/>
</g>
<defs>
<clipPath id="clip0_64_26">
<rect width="739" height="261" fill="white" transform="translate(0 739) rotate(-90)"/>
</clipPath>
</defs>
</svg>
