<svg width="150" height="53" viewBox="0 0 150 53" fill="none" xmlns="http://www.w3.org/2000/svg">
<path d="M136.63 47.5931L111.413 22.5933C111.389 22.5538 111.196 22.4151 110.833 22.1776C110.471 21.9006 110.06 21.7619 109.601 21.7619C109.143 21.7619 108.72 22.039 108.333 22.5933C107.971 23.1476 107.79 24.256 107.79 25.9187V28.6502C107.79 31.2236 108.152 33.4008 108.877 35.1823C109.601 36.9242 110.531 38.3494 111.667 39.4578C112.826 40.5266 114.07 41.3185 115.399 41.833C116.727 42.3081 117.995 42.5456 119.203 42.5456V45.099H94.0217V42.5456C95.2295 42.5456 96.4977 42.3081 97.8261 41.833C99.1545 41.3185 100.386 40.5266 101.522 39.4578C102.681 38.3494 103.623 36.9242 104.348 35.1823C105.072 33.4008 105.435 31.2236 105.435 28.6502V22.4151C105.435 20.3962 105.097 18.5751 104.42 16.952C103.768 15.2893 102.874 13.8839 101.739 12.7359C100.604 11.5482 99.3357 10.6377 97.9348 10.0043C96.5339 9.37091 95.0846 9.0542 93.587 9.0542V6.50077H120.725L133.333 19.5054C133.333 19.5054 133.478 19.6637 133.768 19.9805C134.058 20.2575 134.396 20.5942 134.783 20.99C135.193 21.3463 135.58 21.6631 135.942 21.9401C136.304 22.2171 136.57 22.3558 136.739 22.3558C136.884 22.3558 137.053 22.2569 137.246 22.0588C137.464 21.8608 137.572 21.4255 137.572 20.7524C137.572 18.1792 137.307 16.1207 136.775 14.5767C136.268 13.0328 135.604 11.865 134.783 11.0732C133.961 10.2814 133.068 9.74698 132.101 9.46987C131.135 9.19277 130.205 9.0542 129.312 9.0542V6.50077H148.152V9.0542C147.259 9.0542 146.328 9.19277 145.362 9.46987C144.396 9.74698 143.502 10.2814 142.681 11.0732C141.86 11.865 141.184 13.0328 140.652 14.5767C140.145 16.1207 139.891 18.1792 139.891 20.7524V47.5931H136.63ZM136.63 43.0207V38.7452L106.63 9.0542H105.652V12.3202L136.63 43.0207Z" fill="#FF9F1C"/>
<path d="M21.8841 46.3461C19.6377 46.3461 17.5846 46.148 15.7246 45.7523C13.8647 45.396 12.0894 45.0656 10.3261 44.3925C8.56281 43.6799 2.17391 42.2226 1.81159 39.1486L2.10145 29.2936H3.80435C4.11835 30.4418 4.55313 30.8275 5.39855 32.2132C6.26811 33.5988 7.34299 34.9842 8.62319 36.3699C9.92753 37.7158 11.3768 38.9628 12.971 40.111C14.5894 41.2591 16.2923 42.1893 18.0797 42.9019C19.8913 43.575 21.727 43.9114 23.587 43.9114C24.529 43.9114 25.4589 43.852 26.3768 43.7333C27.3188 43.575 28.0918 43.2781 28.6956 42.8425C29.3237 42.407 29.6377 41.7737 29.6377 40.9423C29.6377 40.0715 29.2513 39.2995 28.4783 38.6264C27.7052 37.9533 26.6545 37.32 25.3261 36.7262C24.0217 36.1324 22.5484 35.5386 20.9058 34.9447C19.2632 34.3509 17.5725 33.7176 15.8333 33.0445C14.0942 32.3319 12.4034 31.5401 10.7609 30.6692C9.11835 29.7984 7.63284 28.7889 6.30435 27.6408C5 26.4926 3.96136 25.1862 3.1884 23.7215C2.41545 22.2171 2.02898 20.495 2.02898 18.5553C2.02898 15.9425 2.3913 13.8048 3.11594 12.1421C3.84058 10.4794 4.80676 9.19277 6.01449 8.28224C7.24637 7.33213 8.6111 6.65912 10.1087 6.26325C11.6063 5.82777 13.128 5.57047 14.6739 5.49128C16.244 5.37252 17.7174 5.31314 19.0942 5.31314C20.3502 5.31314 21.7754 5.4319 23.3696 5.66943C24.9638 5.86738 26.5942 6.16429 28.2609 6.56016C29.9275 6.91645 31.5339 7.31232 33.0797 7.7478C34.6255 8.18328 35.9601 8.49876 37.1377 9.0542L39.4927 10.1262V19.0304H37.7899C37.3188 18.1729 36.7754 17.2885 35.7609 16.2988C34.7705 15.3091 33.5748 14.3194 32.1739 13.3297C30.773 12.3004 29.2754 11.3701 27.6812 10.5388C26.111 9.7074 24.5531 9.0344 23.0072 8.51976C21.4614 8.00513 20.0484 7.7478 18.7681 7.7478C17.4879 7.7478 16.401 7.96552 15.5072 8.401C14.6135 8.83648 14.1667 9.6876 14.1667 10.9544C14.1667 11.9837 14.5411 12.8348 15.2899 13.5078C16.0386 14.1809 17.0411 14.7549 18.2971 15.2299C19.5774 15.6654 21.0024 16.1009 22.5725 16.5363C24.1667 16.9322 25.7971 17.3875 27.4638 17.9021C29.1545 18.3772 30.785 18.9908 32.3551 19.743C33.9493 20.495 35.3745 21.4451 36.6304 22.5933C37.9107 23.7017 38.9252 25.1072 39.6739 26.8094C40.4226 28.4721 40.7971 30.4911 40.7971 32.8664C40.7971 37.6564 39.1667 41.1006 35.9058 43.1988C32.669 45.2971 27.9951 46.3461 21.8841 46.3461ZM33.8043 41.0611L33.9493 41.0017V39.6359C33.9493 37.5774 33.5507 35.9343 32.7536 34.7072C31.9565 33.4801 30.8696 32.5101 29.4928 31.7975C28.14 31.0454 26.5942 30.3922 24.8551 29.8379C23.14 29.2441 21.3406 28.571 19.4565 27.8189C17.7658 27.1458 16.099 26.4136 14.4565 25.6218C12.8382 24.7904 11.3527 23.8403 10 22.7714C8.64733 21.6631 7.52415 20.3763 6.63043 18.9116C5.73672 17.4073 5.18116 15.6654 4.96377 13.686L4.71014 13.6266C4.56522 14.1412 4.44444 14.7944 4.34782 15.5862C4.27536 16.378 4.23913 17.1103 4.23913 17.7834C4.23913 20.5544 5.25362 22.9297 7.28261 24.9092C9.33574 26.8887 12.5121 28.7889 16.8116 30.6099C19.4928 31.7182 21.7754 32.6288 23.6594 33.3414C25.5676 34.054 27.1618 34.7271 28.442 35.3604C29.7464 35.9542 30.8212 36.6867 31.6667 37.5575C32.5121 38.4284 33.2246 39.5964 33.8043 41.0611Z" fill="#FF9F1C"/>
<path d="M66.7754 46.4648L46.3043 9.0542H43.8768V6.50077H69.3841V9.0542H68.3696C67.6208 9.0542 67.0531 9.48968 66.6667 10.3606C66.2802 11.2315 66.087 12.2608 66.087 13.4485C66.087 14.2798 66.1956 15.1507 66.413 16.0613C66.6304 16.9322 66.9444 17.7042 67.3551 18.3772L74.1304 29.6597L78.8406 21.2275C79.227 20.5544 79.5049 19.8617 79.6739 19.1491C79.8429 18.4365 79.9275 17.7042 79.9275 16.952C79.9275 15.606 79.6618 14.3392 79.1304 13.1516C78.5991 11.9639 77.8502 10.994 76.8841 10.2418C75.942 9.45007 74.831 9.0542 73.5507 9.0542H71.7391V6.50077H90.5072V9.0542H88.6594L68.0797 46.4648H66.7754ZM67.3913 43.852L68.9855 41.0017L51.5217 9.0542H48.3696L67.3913 43.852Z" fill="#FF9F1C"/>
</svg>
