<svg width="24" height="25" viewBox="0 0 24 25" fill="none" xmlns="http://www.w3.org/2000/svg">
<path d="M6.62 11.2808C8.06 14.1108 10.38 16.4208 13.21 17.8708L15.41 15.6708C15.68 15.4008 16.08 15.3108 16.43 15.4308C17.55 15.8008 18.76 16.0008 20 16.0008C20.55 16.0008 21 16.4508 21 17.0008V20.4908C21 21.0408 20.55 21.4908 20 21.4908C10.61 21.4908 3 13.8808 3 4.49083C3 3.94083 3.45 3.49083 4 3.49083H7.5C8.05 3.49083 8.5 3.94083 8.5 4.49083C8.5 5.74083 8.7 6.94083 9.07 8.06083C9.18 8.41083 9.1 8.80083 8.82 9.08083L6.62 11.2808Z" fill="white"/>
</svg>
