<svg width="377.000000" height="327.000000" viewBox="0 0 377 327" fill="none" xmlns="http://www.w3.org/2000/svg" xmlns:xlink="http://www.w3.org/1999/xlink">
	<desc>
			Created with Pixso.
	</desc>
	<defs/>
	<rect id="Картінка" rx="15.000000" width="377.000000" height="327.000000" fill="#D9D9D9" fill-opacity="1.000000"/>
	<path id="A" d="M144.34 211.18L122.37 273L94.69 273L174.81 54.81L202.06 54.81L282.19 273L254.5 273L232.53 211.18L144.34 211.18ZM187.56 89.3L152.62 187.74L224.18 187.74L189.24 89.3L187.56 89.3Z" fill="#FF9F1C" fill-opacity="1.000000" fill-rule="evenodd"/>
	<path id="A" d="M154.34 221.18L132.37 283L104.69 283L184.81 64.81L212.06 64.81L292.19 283L264.5 283L242.53 221.18L154.34 221.18ZM197.56 99.3L162.62 197.74L234.18 197.74L199.24 99.3L197.56 99.3Z" fill="#FF9F1C" fill-opacity="1.000000" fill-rule="evenodd"/>
	<path id="A" d="M134.34 201.18L112.37 263L84.69 263L164.81 44.81L192.06 44.81L272.19 263L244.5 263L222.53 201.18L134.34 201.18ZM177.56 79.3L142.62 177.74L214.18 177.74L179.24 79.3L177.56 79.3Z" fill="#FF9F1C" fill-opacity="1.000000" fill-rule="evenodd"/>
</svg>
